# xmcd
#
# Track frame offsets:
#	150
#	14735
#	29300
#	44880
#	59743
#	75180
#	90955
#	108912
#	123995
#	136899
#	154633
#	172524
#
# Disc length: 2453 seconds
#
# Revision: 1
# Processed by: cddbd v1.5.2PL0 Copyright (c) Steve Scherf et al.
# Submitted via: EasyCDDAExtractor 16.0.1.1
#
DISCID=8c09930c
DTITLE=Clay DuBose - These Days
DYEAR=2005
DGENRE=Country
TTITLE0=Long Lonely Life
TTITLE1=No Accident
TTITLE2=Captivated
TTITLE3=Life of the Party
TTITLE4=Fork in The Road
TTITLE5=Less is More
TTITLE6=These Days
TTITLE7=She Cries
TTITLE8=Big Scary Heart
TTITLE9=Crack in the Armor
TTITLE10=Street Sage
TTITLE11=I Threw it all Away
EXTD=
EXTT0=
EXTT1=
EXTT2=
EXTT3=
EXTT4=
EXTT5=
EXTT6=
EXTT7=
EXTT8=
EXTT9=
EXTT10=
EXTT11=
PLAYORDER=
